<svg width="100" height="100" viewBox="0 0 100 100" fill="none" xmlns="http://www.w3.org/2000/svg">
<rect x="2.5" y="2.5" width="95" height="95" stroke="black" stroke-width="5"/>
<path d="M35 39H65" stroke="black" stroke-width="5" stroke-linecap="round"/>
<path d="M50 39V75" stroke="black" stroke-width="5" stroke-linecap="round"/>
<circle cx="50.5" cy="30.5" r="2.5" fill="black"/>
<path d="M22.8395 78.0767V23.723H36.8381V28.7727H28.9332V73.027H36.8381V78.0767H22.8395Z" fill="black"/>
<path d="M81.5824 48.7827V51.9574C79.1818 51.9574 77.5057 52.4545 76.554 53.4489C75.6023 54.4432 75.1264 56.0767 75.1264 58.3494V64.4858C75.1264 66.6591 74.8778 68.4844 74.3807 69.9616C73.8977 71.4531 73.152 72.6463 72.1435 73.5412C71.1349 74.4361 69.8565 75.0824 68.3082 75.4801C66.7599 75.8778 64.9347 76.0767 62.8324 76.0767V71.027C64.4801 71.027 65.7656 70.7784 66.6889 70.2812C67.6122 69.7983 68.2514 69.0455 68.6065 68.0227C68.9759 67.0142 69.1605 65.7287 69.1605 64.1662V56.4105C69.1605 55.3168 69.3239 54.3082 69.6506 53.3849C69.9773 52.4474 70.581 51.6378 71.4616 50.956C72.3423 50.2599 73.5994 49.7273 75.233 49.358C76.8665 48.9744 78.983 48.7827 81.5824 48.7827ZM62.8324 21.723C64.9347 21.723 66.7599 21.9219 68.3082 22.3196C69.8565 22.7173 71.1349 23.3636 72.1435 24.2585C73.152 25.1534 73.8977 26.3466 74.3807 27.8381C74.8778 29.3153 75.1264 31.1406 75.1264 33.3139V39.429C75.1264 41.7159 75.6023 43.3565 76.554 44.3509C77.5057 45.331 79.1818 45.821 81.5824 45.821V49.017C78.983 49.017 76.8665 48.8253 75.233 48.4418C73.5994 48.0582 72.3423 47.5256 71.4616 46.8438C70.581 46.1619 69.9773 45.3594 69.6506 44.4361C69.3239 43.4986 69.1605 42.483 69.1605 41.3892V33.6335C69.1605 32.0568 68.9759 30.7642 68.6065 29.7557C68.2514 28.733 67.6122 27.9801 66.6889 27.4972C65.7656 27.0142 64.4801 26.7727 62.8324 26.7727V21.723ZM81.5824 45.821V51.9574H75.6804V45.821H81.5824Z" fill="black"/>
</svg>
