<svg width="70" height="70" viewBox="0 0 70 70" fill="none" xmlns="http://www.w3.org/2000/svg">
<path d="M43.5266 26H24.8837C23.6666 26 22.5701 26.7353 22.1082 27.8613L21.6979 28.8613C20.8881 30.8354 22.3397 33 24.4734 33H43.1163C44.3334 33 45.4299 32.2647 45.8918 31.1387L46.3021 30.1387C47.1119 28.1646 45.6603 26 43.5266 26Z" fill="black"/>
<path d="M37.8182 24.8743V54.5909C37.8182 56.4737 36.2919 58 34.4091 58C32.5263 58 31 56.4779 31 54.5951V24.8743C32.4952 13.2511 39.82 11.8946 43.6524 12.0059C45.0478 12.0464 46 14.1182 46 15.5141C46 17.3966 44.2575 17.8571 42.4301 18.309C37.8182 19.4494 37.8182 24.8743 37.8182 24.8743Z" fill="black"/>
<rect x="2.5" y="2.5" width="65" height="65" rx="7.5" stroke="black" stroke-width="5"/>
</svg>
